PathFileType	4	(X/Y/Z)	 s05c0202.trc
DataRate	CameraRate	NumFrames	NumMarkers	Units	OrigDataRate	OrigDataStartFrame	OrigNumFrames
200	200	6	49	mm	200	1751	2000
Frame#	Time	racr			lacr			c7			jug			rlel			rdr			llel			ldr			s2			lic			ric			lasi			rasi			rpsi			lpsi			rgt			lgt			rth1			rth2			rth3			rth4			rlfc			rsh1			rsh2			rsh3			rsh4			rlmal			rmmal			rcal			rtoe			rmt5			lth1			lth2			lth4			lth3			llfc			lmfc			lsh1			lsh2			lsh3			lsh4			llmal			lmmal			lcal			ltoe			lmt5			SBIKE			LBIKE			RBIKE			
		X1	Y1	Z1	X2	Y2	Z2	X3	Y3	Z3	X4	Y4	Z4	X5	Y5	Z5	X6	Y6	Z6	X7	Y7	Z7	X8	Y8	Z8	X9	Y9	Z9	X10	Y10	Z10	X11	Y11	Z11	X12	Y12	Z12	X13	Y13	Z13	X14	Y14	Z14	X15	Y15	Z15	X16	Y16	Z16	X17	Y17	Z17	X18	Y18	Z18	X19	Y19	Z19	X20	Y20	Z20	X21	Y21	Z21	X22	Y22	Z22	X23	Y23	Z23	X24	Y24	Z24	X25	Y25	Z25	X26	Y26	Z26	X27	Y27	Z27	X28	Y28	Z28	X29	Y29	Z29	X30	Y30	Z30	X31	Y31	Z31	X32	Y32	Z32	X33	Y33	Z33	X34	Y34	Z34	X35	Y35	Z35	X36	Y36	Z36	X37	Y37	Z37	X38	Y38	Z38	X39	Y39	Z39	X40	Y40	Z40	X41	Y41	Z41	X42	Y42	Z42	X43	Y43	Z43	X44	Y44	Z44	X45	Y45	Z45	X46	Y46	Z46	X47	Y47	Z47	X48	Y48	Z48	X49	Y49	Z49	
1751	8.7550	511.704962	1248.464466	-159.824175	511.822410	1215.303146	-423.171686	492.704628	1322.051541	-303.540017	425.919410	1174.713406	-282.366253	480.477046	1068.692912	58.304712	663.475440	961.978811	-46.359720	484.580791	1025.415969	-652.470301	650.661405	943.499716	-477.766635	-92.553808	1191.732178	-257.680991	38.446705	1194.545433	-405.256808	65.728024	1199.086091	-122.820968	81.990710	1142.101300	-366.507169	97.035692	1133.010341	-152.863832	-52.140713	1237.980697	-217.413908	-57.037498	1241.491004	-302.329107	-1.823553	1063.574689	-96.354112	-7.331966	1116.491895	-434.279971	67.527789	958.482833	-84.418465	127.235212	892.218797	-86.043710	144.497201	805.857218	-92.069332	158.701191	908.802367	-96.275182	211.992819	673.158252	-113.448797	141.591511	590.132125	-86.580642	125.644697	503.345121	-97.896329	72.591365	436.375649	-100.849406	154.330658	493.201575	-121.329376	25.198127	306.233320	-108.432393	50.309590	329.939990	-188.462562	-47.660412	298.461278	-159.127938	218.663161	168.173876	-148.175040	114.024088	183.583919	-86.779404	112.714249	1052.220954	-438.233371	198.673798	1052.789728	-427.930465	206.799143	1084.696775	-407.918881	275.694532	1005.347314	-420.780468	405.894828	937.359683	-384.098762	385.716007	915.342688	-274.662194	331.713058	840.287253	-411.540900	307.955558	756.192062	-411.521157	243.922232	694.903222	-418.026614	335.992649	739.280788	-391.498569	187.703191	579.260659	-421.426197	217.905407	598.656982	-343.779492	119.364584	542.346523	-384.904437	407.533123	485.268520	-391.548479	297.685015	474.318698	-455.348440	-214.979431	913.385851	-268.710272	-43.656709	84.948703	-475.062197	-51.894141	80.132768	-77.565481	
1752	8.7600	511.668401	1248.049635	-160.344364	511.457997	1215.375234	-423.596032	492.502674	1322.101939	-303.949031	425.660495	1174.796598	-282.740233	480.265671	1068.473506	57.609181	663.880069	961.953748	-46.039834	483.069777	1024.685979	-652.091862	650.276502	943.392659	-477.526476	-92.972194	1191.748775	-257.285517	37.797462	1194.286541	-405.396597	65.845076	1198.990686	-122.887200	81.271293	1141.606242	-367.070220	97.259572	1132.835878	-152.771076	-52.099503	1237.680477	-216.983393	-57.355823	1241.402514	-302.081305	-0.277104	1063.452606	-96.032576	-8.884263	1115.733196	-433.758057	72.171647	960.264519	-85.204869	133.463985	895.459753	-87.607385	152.866014	809.555894	-93.052340	164.163686	912.806879	-99.194698	220.309688	677.358928	-114.073786	148.053451	595.959994	-87.329236	129.545875	509.752554	-98.484636	74.548522	444.258573	-101.026118	157.664611	498.611831	-122.165390	22.698413	316.285347	-108.325592	48.354847	338.728227	-188.524477	-50.465812	311.096922	-159.073011	210.689732	170.605701	-148.407597	106.848557	190.286659	-86.923359	111.115387	1049.484772	-438.889802	197.068600	1048.785376	-428.990406	205.814937	1080.609362	-409.172240	273.378029	1000.117625	-422.092596	402.393578	929.898537	-385.991896	382.765215	907.987748	-277.098387	329.229770	831.126967	-413.459912	307.436827	746.520608	-412.912032	244.861535	683.647217	-418.968957	335.887085	730.386917	-392.915758	191.428079	567.624278	-421.869675	221.178683	587.978877	-344.133369	123.959874	528.386298	-385.058392	414.380247	482.122690	-391.954679	305.005459	466.810350	-455.740902	-214.863271	913.398100	-269.029772	-43.390139	85.079040	-475.257953	-51.931358	80.164226	-77.571712	
1753	8.7650	511.630626	1247.779226	-160.728183	511.136014	1215.753969	-423.987102	492.352503	1322.283010	-304.245256	425.436952	1174.992671	-283.177449	480.082878	1068.220930	56.843771	664.256643	961.841315	-45.811158	481.576707	1024.053949	-651.508570	649.932968	943.401959	-477.225476	-93.664502	1191.351427	-256.586274	37.082083	1193.917729	-405.767914	65.885974	1198.632168	-123.090412	80.471239	1140.672095	-367.448967	97.545638	1132.534534	-152.631790	-52.217298	1237.279870	-216.738369	-57.837127	1240.998075	-301.771928	1.239226	1063.317319	-95.719969	-10.548543	1114.569583	-433.285560	76.685884	962.015700	-86.077585	139.653739	898.973625	-89.026806	161.052629	813.505677	-94.008029	169.426056	916.434381	-102.144873	228.943459	681.802966	-114.846932	154.707497	601.846339	-88.069367	133.658631	516.215421	-98.966414	76.845094	452.284368	-101.181444	161.326016	504.243146	-122.879629	20.750180	326.484084	-107.929284	47.030005	347.919460	-188.424474	-52.647259	323.972108	-158.807412	203.040458	173.667693	-148.536364	100.075451	197.221562	-87.083581	109.390679	1046.445378	-439.531370	195.322303	1044.384594	-430.110801	204.698978	1076.171035	-410.484250	270.936186	994.606087	-423.567904	398.753279	922.245194	-388.017297	379.248039	900.128482	-279.077370	326.710832	821.546320	-415.152522	307.147586	736.431384	-414.136999	246.158671	671.937087	-419.808668	336.033272	721.170544	-394.185466	195.446686	555.964841	-422.345943	224.878588	577.437434	-344.339811	129.099996	514.663580	-384.799227	421.013863	478.026421	-392.606872	311.921818	458.755989	-456.045310	-214.739712	913.432923	-269.278915	-43.388808	85.046202	-475.281865	-51.930921	80.135895	-77.588817	
1754	8.7700	511.586107	1247.596575	-160.997621	510.929013	1216.275729	-424.276121	492.224261	1322.560396	-304.407617	425.292182	1175.248640	-283.556601	479.946769	1067.912827	56.116946	664.592562	961.689442	-45.689283	480.186514	1023.510425	-650.738266	649.613698	943.545632	-476.918202	-94.069209	1190.699965	-255.997700	36.605614	1193.528536	-406.306435	66.098801	1197.932598	-123.166111	79.744357	1139.594122	-367.866264	97.744713	1132.266770	-152.599391	-52.414920	1236.747533	-216.461442	-58.220968	1240.273446	-301.640183	2.464235	1062.994396	-95.660705	-12.200176	1113.209079	-432.897259	81.225638	964.074622	-87.076520	145.563479	902.596058	-90.415260	168.957378	817.703858	-95.084579	174.849647	920.515404	-104.550660	237.437548	686.328173	-115.730298	161.434635	607.916638	-88.786331	137.926565	522.905189	-99.495607	79.377197	460.524732	-101.173005	165.199641	510.243515	-123.456680	19.290781	336.929358	-107.471207	46.229844	357.422019	-188.135320	-54.103250	337.070561	-158.363182	195.747213	177.204414	-148.605346	93.731321	204.559158	-87.125602	107.562887	1043.052969	-440.217525	193.540899	1039.605521	-431.218137	203.543617	1071.506265	-412.002606	268.509001	988.654200	-425.220576	395.080572	914.778634	-390.199857	376.161332	892.689267	-281.306091	324.231808	811.788797	-416.673366	306.930687	726.133560	-415.322457	247.775905	660.024311	-420.590953	336.298069	711.795351	-395.231018	199.475108	544.255969	-422.598597	229.088709	566.572177	-344.707431	134.458127	501.255416	-384.074440	427.280478	472.877017	-393.772657	318.406588	450.248012	-456.360550	-214.709424	913.387570	-269.254320	-43.393840	85.018136	-475.277908	-51.905050	80.134311	-77.593617	
1755	8.7750	511.533825	1247.636384	-161.223767	510.749386	1217.031705	-424.495990	492.084550	1323.026093	-304.487446	425.182908	1175.666347	-283.892993	479.884583	1067.599137	55.417047	664.837160	961.496109	-45.719666	478.896759	1023.137634	-649.812703	649.295439	943.692392	-476.604688	-94.433735	1189.625336	-255.455190	35.826598	1192.285475	-406.285693	66.195373	1197.339731	-123.366858	79.042319	1138.362138	-368.277764	97.899239	1131.670357	-152.537516	-52.679912	1235.856952	-216.221126	-58.774355	1239.359487	-301.373068	4.056452	1062.715952	-95.393311	-13.871852	1111.383595	-432.480836	85.453412	966.349453	-87.937908	151.239417	906.183851	-91.649202	176.517508	821.845023	-95.746389	179.917665	925.162349	-105.667706	245.819700	691.009295	-116.595702	168.178151	614.061363	-89.440877	142.409522	529.716758	-99.826843	82.138452	468.856414	-101.247018	169.103092	516.325485	-124.097769	18.567879	347.278582	-107.345779	45.874021	367.140080	-187.697866	-54.885667	350.304371	-157.749395	188.741527	180.985134	-148.858958	88.057336	212.213200	-87.136678	105.689502	1039.451566	-440.990498	191.597551	1034.767080	-432.600398	202.327869	1066.683411	-413.736281	265.899278	982.686967	-426.793964	391.380068	906.628582	-392.169714	373.427443	885.388366	-283.408504	321.703203	801.759464	-418.970286	306.968276	715.695161	-416.391686	249.613478	648.146253	-421.500361	336.591409	702.402849	-396.133460	203.755183	532.516381	-422.162233	233.361694	555.928501	-344.729561	139.924454	488.342892	-383.080838	433.206392	466.784658	-394.804567	324.493917	441.293774	-456.586294	-214.684410	913.350541	-269.160804	-43.386921	85.026317	-475.258873	-51.906255	80.106871	-77.596915	
1756	8.7800	511.490280	1247.889541	-161.336702	510.596235	1218.019679	-424.726503	491.923682	1323.552539	-304.488820	425.166405	1176.073506	-284.297457	479.727920	1067.226708	54.683336	664.849037	961.237989	-45.919898	477.703481	1022.892903	-648.874442	648.976916	943.798776	-476.313938	-94.854524	1188.446559	-255.033362	35.277562	1191.247896	-406.670323	66.121104	1196.687934	-123.636055	78.444262	1136.940826	-368.700033	97.921899	1131.121253	-152.787990	-53.059472	1234.774507	-216.071054	-59.362655	1238.179073	-301.322733	5.760019	1062.360939	-95.044602	-15.567911	1109.342013	-432.137375	89.391288	968.459100	-88.770354	156.468964	909.857278	-92.546362	183.624522	826.052586	-96.317469	184.564506	929.281010	-107.034887	254.114938	695.851826	-117.550487	174.879711	620.378733	-90.046536	146.895765	536.748851	-100.133695	85.193047	477.423889	-101.145689	173.187100	522.562637	-124.540758	18.528401	357.921766	-106.779235	46.079195	377.096227	-187.253663	-54.882218	363.727878	-157.012489	182.165833	185.353308	-149.064957	82.906006	220.227277	-87.089432	103.725798	1035.701853	-441.860807	189.652377	1030.005685	-434.154543	200.971807	1061.492273	-415.491887	263.218373	976.650298	-428.391911	387.861565	899.290597	-394.099445	370.898228	878.706417	-285.741650	319.437903	791.809516	-420.467840	307.159673	705.354719	-417.476549	251.976727	635.990451	-421.691652	337.051122	693.082774	-396.974920	208.176347	521.262694	-421.908399	237.424544	545.209081	-344.632925	145.765561	475.757122	-382.494994	438.899917	459.980568	-394.627995	330.759665	432.395568	-456.475514	-214.665987	913.321373	-268.986024	-43.565732	84.781550	-475.036836	-51.875522	80.088808	-77.585102	
